<svg width="48" height="48" viewBox="0 0 48 48" fill="none" xmlns="http://www.w3.org/2000/svg">
<g clip-path="url(#clip0_150_2185)">
<path d="M44.9963 13.4115C44.9963 13.4453 44.9963 13.4876 44.9875 13.5129C44.9434 13.8426 44.9434 14.1723 44.9698 14.5105C44.9875 14.595 45.0051 14.6795 45.0756 14.7472C45.19 14.874 45.3662 14.8486 45.4367 14.6964C45.4719 14.6204 45.4719 14.5443 45.4543 14.4682C45.3662 14.147 45.3486 13.8088 45.3398 13.4791C45.3398 13.4622 45.3398 13.4369 45.3398 13.4115C45.4367 13.4031 45.5248 13.3946 45.604 13.3946C45.6657 13.3861 45.7185 13.3777 45.7626 13.3523C45.8946 13.2847 45.8946 13.141 45.7537 13.0734C45.7009 13.048 45.6304 13.0396 45.5688 13.0396C45.3486 13.048 45.1284 13.048 44.9082 13.048C44.829 13.048 44.7497 13.0565 44.6704 13.0649C44.6263 13.0734 44.5735 13.0734 44.5383 13.0987C44.4766 13.1241 44.4414 13.1664 44.4414 13.2255C44.4502 13.2847 44.4766 13.3185 44.5383 13.3439C44.5735 13.3692 44.6175 13.3777 44.6616 13.3777C44.7672 13.3861 44.8818 13.4031 44.9963 13.4115ZM47.4184 13.8004C47.4184 13.8088 47.4272 13.8173 47.4272 13.8173C47.4624 14.0455 47.4977 14.2653 47.5241 14.4851C47.5329 14.5612 47.5417 14.6288 47.5946 14.688C47.709 14.8317 47.8852 14.8148 47.9645 14.6626C47.9997 14.5865 48.0085 14.5105 47.9909 14.4259C47.9381 14.1723 47.9116 13.9187 47.8588 13.6736C47.8235 13.5214 47.7795 13.3777 47.7355 13.2424C47.709 13.1579 47.6474 13.0987 47.5417 13.0903C47.436 13.0734 47.3567 13.1241 47.3127 13.2002C47.2599 13.2678 47.2158 13.3354 47.1806 13.4115C47.1189 13.5468 47.0661 13.682 46.9957 13.8088C46.9868 13.8426 46.978 13.868 46.9604 13.8934C46.9516 13.8764 46.9428 13.868 46.9428 13.868C46.8283 13.6567 46.7226 13.4453 46.6081 13.2424C46.5904 13.2255 46.5817 13.2086 46.5729 13.1917C46.52 13.1156 46.4584 13.0734 46.3615 13.0734C46.2734 13.0818 46.2029 13.1325 46.1589 13.2086C46.1413 13.2424 46.1413 13.2678 46.1325 13.3016C46.0972 13.5721 46.0532 13.8426 46.018 14.1131C46.0003 14.2653 45.9915 14.4175 45.9915 14.5696C45.9827 14.6034 45.9915 14.6457 46.0091 14.6795C46.0268 14.7471 46.0796 14.7894 46.1501 14.7979C46.2381 14.8063 46.2998 14.781 46.3262 14.7133C46.3526 14.6626 46.3615 14.6204 46.3703 14.5781C46.4055 14.4259 46.4319 14.2822 46.4584 14.1385C46.476 14.054 46.4848 13.9863 46.5112 13.8934C46.5288 13.9272 46.5464 13.9525 46.5641 13.9779C46.6433 14.0793 46.7226 14.1808 46.8195 14.2653C46.9164 14.3329 46.9957 14.3245 47.0749 14.2484C47.0925 14.2315 47.1013 14.223 47.1189 14.2061C47.1982 14.0878 47.2951 13.9694 47.3743 13.8511C47.392 13.8342 47.4008 13.8173 47.4184 13.8004Z" fill="#3A3B7B"/>
<path d="M27.1257 13.5776C27.0644 13.7383 27.0527 13.854 27.081 13.9502C27.1122 14.081 27.1933 14.1238 27.3032 14.0906C28.3378 13.845 30.6063 14.542 31.4462 14.7362C31.6443 14.777 31.8054 14.5316 31.6703 14.3115C31.473 14.0985 29.2055 13.1862 28.3403 13.1364C28.0011 13.118 27.3948 13.0346 27.1257 13.5776Z" fill="#3A3B7B"/>
<path d="M35.9906 10.6244C36.1008 10.6854 36.1625 10.7437 36.1929 10.8088C36.2382 10.8942 36.2143 10.9533 36.1382 10.9834C35.4543 11.3037 34.5443 12.6828 34.177 13.1585C34.088 13.2679 33.8826 13.2043 33.8516 13.0244C33.8579 12.8209 34.6646 11.3243 35.1148 10.9167C35.2917 10.7575 35.584 10.4453 35.9906 10.6244Z" fill="#3A3B7B"/>
<path d="M30.543 9.94553C30.6755 9.84971 30.8131 9.81614 30.8834 9.87841C31.9152 10.7253 32.4623 12.0664 32.8011 13.2942C32.8139 13.3228 32.8147 13.3639 32.8045 13.4067C32.8003 13.4433 32.7724 13.482 32.7282 13.5119C32.6809 13.5449 32.6402 13.555 32.6211 13.5265C32.1689 12.9362 29.5861 10.6393 30.543 9.94553Z" fill="#3A3B7B"/>
<path d="M8.69524 24.6286C8.94253 24.4519 9.21137 24.3048 9.49586 24.1906C9.7935 24.109 10.1107 24.1225 10.3997 24.2293C10.6885 24.336 10.9334 24.5301 11.0971 24.7823C11.2435 25.0338 11.3008 25.3242 11.2604 25.6097C11.2199 25.8952 11.084 26.1603 10.8729 26.3652C10.7093 26.5313 10.5235 26.676 10.3205 26.7956C9.41582 27.3565 8.50308 27.8867 7.59039 28.4476C7.40363 28.588 7.20551 28.714 6.99793 28.8242C6.68217 28.9753 6.32132 29.0158 5.97776 28.9386C5.6342 28.8615 5.32955 28.6715 5.11648 28.4016C4.95719 28.2104 4.82277 28.0014 4.71616 27.7791C3.8515 26.0348 2.95481 24.2982 2.12217 22.5231C1.73787 21.7548 1.42563 20.8711 1.12139 20.0181C0.989767 19.7703 0.964063 19.483 1.04976 19.2173C1.13545 18.9515 1.32577 18.7284 1.58025 18.5952C1.83473 18.4621 2.13327 18.4295 2.4124 18.5044C2.69152 18.5793 2.92921 18.7557 3.0749 18.9961C3.52271 19.5673 3.91911 20.174 4.25981 20.8096C5.12448 22.3464 5.94912 23.8832 6.78176 25.374C6.83024 25.4564 6.8837 25.5358 6.94188 25.6122C7.56859 25.3593 8.15803 25.0286 8.69524 24.6286Z" fill="#3A3B7B"/>
<path d="M17.6362 24.0925C15.6587 26.3132 12.3441 25.7522 10.6789 22.8937C9.49393 20.8651 9.28579 17.5148 11.8638 15.4017C12.4143 14.9593 13.0726 14.6579 13.7772 14.5257C14.6412 14.4068 15.5223 14.5531 16.2944 14.9437C17.0666 15.3342 17.6903 15.9491 18.0766 16.7003C19.4857 19.1592 19.2855 22.2943 17.6362 24.0925ZM16.8356 18.9133C16.6255 18.3091 16.2041 17.7932 15.6427 17.4533C15.325 17.236 14.939 17.1304 14.5497 17.1542C14.1604 17.178 13.7915 17.3297 13.505 17.584C12.3602 18.5599 12.12 20.8728 12.9526 22.2483C13.0587 22.4726 13.2146 22.6719 13.4094 22.8323C13.6041 22.9927 13.8331 23.1104 14.0802 23.1769C14.3273 23.2436 14.5865 23.2575 14.8398 23.2179C15.0932 23.1782 15.3344 23.086 15.5467 22.9475C16.1673 22.4857 16.6226 21.8498 16.8492 21.1282C17.076 20.4066 17.0628 19.6351 16.8116 18.921L16.8356 18.9133Z" fill="#3A3B7B"/>
<path d="M25.706 19.8816C25.5036 19.9234 25.2944 19.9259 25.0909 19.8889C24.8875 19.8519 24.6937 19.7763 24.5212 19.6665C24.3702 19.5836 24.2402 19.4696 24.1405 19.3327C24.041 19.1958 23.9742 19.0395 23.9451 18.8748C23.916 18.7103 23.9253 18.5415 23.9723 18.3808C24.0193 18.22 24.1029 18.0713 24.2169 17.9452C24.4157 17.6918 24.6978 17.5105 25.0175 17.4304C25.8523 17.1978 26.7117 17.0561 27.5795 17.0078C27.7702 16.9865 27.9634 17.002 28.1477 17.0533C28.332 17.1047 28.5038 17.1909 28.653 17.3069C28.8021 17.4228 28.9257 17.5662 29.0163 17.7286C29.1069 17.891 29.1628 18.0692 29.1807 18.2526C29.4309 19.1536 29.4583 20.0982 29.2608 21.0112C28.5403 23.9619 26.0583 24.9762 23.2722 24.031C22.4901 23.7783 21.8044 23.3075 21.3027 22.6786C20.6335 21.9214 20.1591 21.0239 19.9176 20.0584C19.7219 19.1986 19.7433 18.3064 19.9801 17.4563C20.2169 16.6061 20.6621 15.8226 21.2786 15.1712C21.8637 14.4633 22.6231 13.9061 23.4884 13.5499C24.0351 13.2606 24.6749 13.1784 25.2818 13.3194C25.4194 13.3559 25.5443 13.4272 25.6436 13.5257C25.743 13.6243 25.813 13.7465 25.8465 13.8798C25.88 14.013 25.8757 14.1525 25.8341 14.2836C25.7925 14.4148 25.7152 14.5329 25.61 14.6257C25.4101 14.7994 25.1929 14.9538 24.9615 15.0867C24.2497 15.5218 23.6303 16.0823 23.1361 16.7388C22.8121 17.1636 22.589 17.6514 22.4825 18.1678C22.3759 18.6842 22.3886 19.2167 22.5196 19.728C22.7012 20.425 23.1041 21.0507 23.6725 21.5183C25.4338 23.0552 27.7236 21.5721 27.3233 19.4743C26.7389 19.6127 26.2265 19.7587 25.706 19.8816Z" fill="#3A3B7B"/>
<path d="M36.4676 24.2154C33.8656 25.7523 30.9033 24.2154 30.2548 20.9881C29.7825 18.6829 30.6791 15.4556 33.8176 14.2261C34.4853 13.9701 35.2096 13.8803 35.9232 13.9648C36.7805 14.1155 37.5671 14.5206 38.1717 15.123C38.7764 15.7255 39.169 16.4949 39.2938 17.3228C39.8222 20.066 38.6213 22.9937 36.4676 24.2154ZM37.3723 19.044C37.3715 18.4057 37.1363 17.788 36.7078 17.2997C36.4788 16.9977 36.1477 16.7814 35.7711 16.6874C35.3943 16.5936 34.9954 16.628 34.6422 16.7849C33.2331 17.3689 32.2403 19.4897 32.6006 21.0496C32.6282 21.2944 32.711 21.5305 32.8435 21.7414C32.976 21.9522 33.1548 22.1327 33.3676 22.2703C33.5803 22.4079 33.8218 22.4992 34.0752 22.5379C34.3286 22.5766 34.5877 22.5617 34.8343 22.4942C35.5792 22.2445 36.2241 21.7778 36.679 21.1592C37.1341 20.5407 37.3764 19.8012 37.3723 19.044Z" fill="#3A3B7B"/>
<path d="M41.9227 24.8609C41.8834 25.1421 41.7294 25.3969 41.4944 25.5691C41.2594 25.7413 40.9627 25.8169 40.6697 25.7792C40.3767 25.7415 40.1113 25.5936 39.9319 25.368C39.7524 25.1425 39.6737 24.8578 39.713 24.5766C39.7523 24.2953 39.9064 24.0406 40.1413 23.8684C40.3763 23.6962 40.673 23.6206 40.966 23.6583C41.259 23.696 41.5244 23.8439 41.7039 24.0694C41.8833 24.295 41.962 24.5797 41.9227 24.8609ZM41.2261 14.495C41.3784 14.2718 41.6018 14.1018 41.863 14.0104C42.1241 13.919 42.4091 13.9111 42.6753 13.9878C42.9459 14.0528 43.185 14.2051 43.3527 14.4191C43.5203 14.6331 43.6062 14.8959 43.596 15.1635C43.5607 15.5927 43.4938 16.0189 43.3959 16.4391C43.1317 17.8606 42.8754 19.2822 42.5953 20.6884C42.4671 21.2494 42.299 21.7872 42.1148 22.3558C42.0508 22.5336 41.9438 22.6942 41.8026 22.8246C41.7149 22.9227 41.6028 22.9979 41.4767 23.0433C41.3506 23.0888 41.2147 23.1029 41.0814 23.0845C40.9481 23.0661 40.8217 23.0158 40.7141 22.9381C40.6065 22.8604 40.521 22.758 40.4656 22.6402C40.3704 22.4289 40.3187 22.2018 40.3135 21.9717C40.3135 21.0188 40.3135 20.0583 40.3775 19.0978C40.4864 17.727 40.7004 16.3657 41.018 15.0252C41.0554 14.8456 41.1258 14.6738 41.2261 14.518V14.495Z" fill="#3A3B7B"/>
<path fill-rule="evenodd" clip-rule="evenodd" d="M5.31141 31.0357C5.21688 31.2383 5.19096 31.4641 5.23715 31.6814C5.26788 31.9678 5.33538 32.2496 5.43811 32.5202C5.56637 32.8516 5.70988 33.1793 5.88685 33.5832C5.92754 33.6761 5.97007 33.7731 6.01457 33.8752C6.25321 34.4224 6.55264 35.1217 6.95204 36.1337C7.06509 36.4212 7.16548 36.7111 7.26657 37.003C7.3074 37.1209 7.34839 37.2392 7.39034 37.3577C7.54071 37.7793 7.79945 38.158 8.14242 38.4582C8.28805 38.6231 8.48122 38.7434 8.69782 38.8035C8.91866 38.8648 9.15352 38.8609 9.372 38.7923C9.59049 38.7237 9.78238 38.5936 9.92278 38.4189C10.0604 38.2476 10.1423 38.0412 10.1582 37.8255C10.2475 37.4054 10.217 36.9698 10.0698 36.5648C9.83623 35.8923 9.57014 35.2189 9.2633 34.5602L9.26189 34.5573C8.75711 33.5267 8.244 32.5033 7.70662 31.4794L7.7026 31.4723C7.54528 31.2055 7.34084 30.9671 7.09845 30.7676C6.9411 30.5896 6.72404 30.4695 6.48434 30.4281C6.23953 30.3859 5.98705 30.4285 5.77197 30.5483C5.5685 30.6599 5.40721 30.8305 5.31141 31.0357Z" fill="#3A3B7B"/>
<path fill-rule="evenodd" clip-rule="evenodd" d="M13.0214 28.4981C12.2299 28.3014 11.4033 28.2727 10.5992 28.4142C9.97639 28.473 9.36385 28.6109 8.9385 28.884C8.72216 29.023 8.54726 29.2015 8.44997 29.4284C8.35214 29.6565 8.33965 29.9173 8.41982 30.208C8.56619 30.7404 8.75627 31.2581 8.94568 31.7741L8.97636 31.8576L8.9771 31.8595C9.54742 33.3585 10.1232 34.8525 10.7042 36.3413C10.7719 36.5759 10.8677 36.8023 10.9896 37.0158L10.9919 37.0197C11.153 37.2849 11.3596 37.5221 11.603 37.7214C11.7247 37.8309 11.8753 37.9067 12.0385 37.9406C12.2033 37.9747 12.3747 37.9648 12.5341 37.9119C12.6935 37.8589 12.8346 37.765 12.9422 37.6403C13.048 37.5176 13.1173 37.3699 13.1427 37.2126C13.2477 36.7854 13.2141 36.3375 13.0462 35.9292C12.9939 35.7918 12.9528 35.6513 12.9095 35.5035C12.895 35.4542 12.8804 35.404 12.8649 35.3529C14.1948 34.854 15.6099 34.1831 16.1075 32.6224C16.3023 32.083 16.3186 31.499 16.1539 30.9504C15.9892 30.4012 15.6511 29.9144 15.1863 29.557C14.5538 29.0568 13.8149 28.6953 13.0214 28.4981ZM10.8275 30.4125C10.8537 30.4052 10.8801 30.3985 10.9065 30.3922C11.7723 30.2616 12.6581 30.4357 13.4009 30.8823C13.7282 31.1007 13.8623 31.3435 13.8853 31.5771C13.9091 31.8176 13.818 32.0782 13.6349 32.3287C13.2891 32.8019 12.6579 33.1807 12.0878 33.2513C11.6722 32.3326 11.2502 31.3768 10.8275 30.4125Z" fill="#3A3B7B"/>
<path d="M18.2998 26.8165C19.2424 26.3988 20.4099 26.3266 21.3235 26.6203C21.5536 26.6847 21.7533 26.8238 21.8883 27.0139C22.0224 27.2029 22.0843 27.4306 22.0637 27.6583C22.0623 27.806 22.0245 27.9514 21.9534 28.0826C21.881 28.2161 21.7762 28.3309 21.6478 28.4174C21.5195 28.5038 21.3713 28.5594 21.2158 28.5792C21.0603 28.5991 20.9022 28.5828 20.7547 28.5316L20.7435 28.5277L20.733 28.5223C20.6575 28.4844 20.5773 28.4559 20.4944 28.4373L20.4892 28.4362C19.8465 28.2724 19.2402 28.5438 19.0188 28.8774C18.9132 29.0364 18.9001 29.197 18.988 29.343C19.0822 29.4994 19.3133 29.675 19.7808 29.8001C19.9094 29.8339 20.0412 29.8666 20.1749 29.8998C20.5446 29.9917 20.9287 30.0872 21.3002 30.2194L21.3017 30.22C23.0155 30.8458 23.6537 32.1421 23.4353 33.3613C23.2191 34.5669 22.17 35.6642 20.5924 35.923C20.0183 36.0451 19.4209 36.0213 18.8592 35.854C18.2961 35.6861 17.7886 35.3799 17.387 34.9654L17.3766 34.9546C17.2498 34.7985 17.1645 34.615 17.1267 34.4204C17.0919 34.2448 17.1103 34.0633 17.1794 33.8972C17.2482 33.7322 17.3645 33.5894 17.5145 33.4853C17.6731 33.3673 17.8641 33.2965 18.0642 33.2818C18.2635 33.2671 18.463 33.3087 18.638 33.4013C18.8129 33.4824 18.9755 33.5858 19.1215 33.7088L19.1242 33.711C19.3824 33.9377 19.6949 33.9968 19.9945 33.942C20.2984 33.8866 20.5842 33.7139 20.7681 33.4849C20.9507 33.2573 21.024 32.987 20.937 32.7245C20.8494 32.4601 20.5862 32.164 20.0077 31.9163C19.8565 31.8547 19.6998 31.805 19.5367 31.7566C19.4927 31.7436 19.448 31.7306 19.4027 31.7174C19.2821 31.6823 19.1581 31.6461 19.0364 31.6062C18.9526 31.5788 18.8695 31.5528 18.7872 31.5271C18.5622 31.4567 18.3428 31.3882 18.1317 31.2963C17.6722 31.1461 17.2753 30.8578 16.9999 30.474C16.7235 30.0887 16.5843 29.628 16.6033 29.1605C16.6047 28.0214 17.3522 27.2367 18.2998 26.8165Z" fill="#3A3B7B"/>
<path d="M30.2479 26.6953C30.0651 26.6096 29.863 26.5689 29.6599 26.5769C29.4566 26.585 29.2587 26.6414 29.0839 26.7412C28.9102 26.8403 28.7648 26.9792 28.6606 27.1453C28.565 27.2852 28.4989 27.4417 28.4659 27.606C28.433 27.7702 28.4338 27.9389 28.4682 28.1027C28.5023 28.3132 28.54 28.5179 28.5773 28.7198C28.639 29.0539 28.699 29.3805 28.7386 29.7135L28.7401 29.7219C28.8302 30.2441 28.8774 30.7722 28.8817 31.3015L28.8821 31.309C28.9129 31.8805 28.71 32.441 28.3169 32.8714L28.3106 32.879C28.1827 33.0363 28.0117 33.1564 27.8167 33.2258C27.6217 33.2952 27.4104 33.3112 27.2065 33.2719C27.0026 33.2326 26.8141 33.1397 26.6621 33.0034C26.5101 32.8672 26.4005 32.6925 26.3458 32.5C26.2289 32.0942 26.1613 31.6768 26.1441 31.2562L26.3437 28.207C26.3466 28.1672 26.35 28.1264 26.3534 28.0851C26.361 27.9925 26.3688 27.8982 26.372 27.8102C26.3767 27.6808 26.3727 27.5476 26.3413 27.4216C26.3091 27.2928 26.2479 27.1703 26.1394 27.066C26.032 26.9627 25.887 26.8865 25.7045 26.8346C25.3745 26.7429 25.0954 26.7458 24.8629 26.8405C24.6303 26.9353 24.4709 27.1111 24.3581 27.3142C24.2461 27.5157 24.1742 27.7541 24.1198 27.993C24.0795 28.1702 24.0471 28.3563 24.0162 28.5334C24.0056 28.5944 23.9952 28.6543 23.9846 28.7125L23.9843 28.7142C23.8194 29.6854 23.7704 30.6716 23.838 31.6535C23.8507 32.1841 23.9659 32.7079 24.1781 33.1981C24.4175 33.8305 24.851 34.3785 25.4215 34.7697C25.9933 35.1616 26.6755 35.3776 27.3779 35.389C28.0804 35.4004 28.7699 35.2067 29.3551 34.8336C29.9394 34.461 30.3922 33.927 30.6536 33.3023C31.0194 32.5064 31.1911 31.6409 31.1557 30.7717C31.1342 30.1371 31.0982 29.4977 31.0624 28.8615C31.0448 28.5494 31.0273 28.238 31.0116 27.9284C31.0037 27.6181 30.897 27.3175 30.7059 27.0669C30.5877 26.9086 30.4303 26.7808 30.2479 26.6953Z" fill="#3A3B7B"/>
<path d="M36.7175 31.4764C36.699 31.499 36.6794 31.5224 36.659 31.5467C36.5104 30.7236 36.3726 29.9008 36.2346 29.0768C36.1851 28.7811 36.1354 28.4842 36.0853 28.1881L36.0797 28.1551L36.0614 28.1266C36.027 28.0728 36.0236 28.0202 36.0236 27.9079V27.8949L36.0215 27.882C35.9842 27.6501 35.8748 27.4342 35.7079 27.2627C35.5413 27.0917 35.3251 26.9727 35.0872 26.921C34.8497 26.8648 34.6001 26.8772 34.3699 26.9567C34.1403 27.036 33.9401 27.1784 33.7944 27.3663C33.6733 27.5104 33.574 27.6703 33.4996 27.8412C33.3307 28.2092 33.1604 28.5782 32.9896 28.9481L32.9866 28.9545C32.5602 29.8781 32.1309 30.8079 31.7141 31.745L31.7128 31.748C31.4569 32.3556 31.2457 32.9958 31.0352 33.6341C30.9932 33.7615 30.9511 33.8889 30.9088 34.0159C30.8328 34.2173 30.7995 34.4312 30.8109 34.6451C30.7971 34.8366 30.8448 35.0276 30.9478 35.1923C31.0528 35.3603 31.2102 35.4926 31.3976 35.5704C31.5962 35.654 31.8182 35.6717 32.0286 35.6208C32.2385 35.57 32.4248 35.4537 32.5584 35.2903C32.7289 35.0889 32.8756 34.8693 32.9953 34.6367C33.3484 33.9434 33.6859 33.2418 34.0218 32.5431C34.1518 32.2729 34.2781 32.0309 34.4217 31.7673C34.4316 31.7998 34.4417 31.8315 34.4521 31.8633C34.6027 32.4996 34.8569 33.1091 35.2053 33.6695C35.2712 33.7882 35.3631 33.8919 35.4745 33.9736C35.5873 34.0563 35.7175 34.1143 35.856 34.1437C35.9946 34.1732 36.1381 34.1733 36.2767 34.1441C36.4151 34.115 36.5457 34.0569 36.6585 33.9747L36.8819 33.8142L38.6158 32.4125L38.5132 33.0396C38.3725 33.9016 38.2328 34.7565 38.0844 35.6115C37.9874 35.9905 37.9875 36.3863 38.0849 36.7652C38.127 36.9784 38.2344 37.1747 38.3934 37.329C38.5538 37.4847 38.7591 37.5904 38.9828 37.6326C39.2065 37.6747 39.4383 37.6513 39.648 37.5655C39.8547 37.4809 40.0305 37.3395 40.1533 37.1592C40.4392 36.8188 40.6171 36.4066 40.666 35.9718C40.7396 35.3578 40.8227 34.7355 40.9059 34.1133C41.0017 33.3961 41.0976 32.6792 41.1785 31.976L41.1787 31.9738C41.2566 31.204 41.2943 30.4311 41.2917 29.6578C41.3087 29.4134 41.2453 29.1699 41.1102 28.9618C40.9747 28.753 40.7739 28.5907 40.5366 28.4978C40.2898 28.3901 40.0135 28.3613 39.7484 28.4158C39.485 28.4698 39.2466 28.6031 39.0677 28.7961C38.7479 29.08 38.4479 29.3838 38.1696 29.7055L38.1677 29.7076C37.8639 30.071 37.5621 30.4415 37.2624 30.8096C37.0801 31.0333 36.8983 31.2566 36.7175 31.4764Z" fill="#3A3B7B"/>
</g>
<defs>
<clipPath id="clip0_150_2185">
<rect width="47" height="29" fill="white" transform="translate(1 9.8468)"/>
</clipPath>
</defs>
</svg>
